<mxfile host="app.diagrams.net" modified="2022-03-01T08:50:22.495Z" agent="5.0 (Macintosh; Intel Mac OS X 10_15_7) AppleWebKit/537.36 (KHTML, like Gecko) Chrome/97.0.4692.99 Safari/537.36" etag="DoqSFIP3IABBLaxx1PeN" version="16.6.2" type="github">
  <diagram id="JiGCV27MPA_2CdQ_huYr" name="Page-1">
    <mxGraphModel dx="946" dy="516" grid="1" gridSize="10" guides="1" tooltips="1" connect="1" arrows="1" fold="1" page="1" pageScale="1" pageWidth="827" pageHeight="1169" math="0" shadow="0">
      <root>
        <mxCell id="0" />
        <mxCell id="1" parent="0" />
        <mxCell id="2ANnBcZG1IqBUi7rHIKL-36" value="" style="rounded=1;whiteSpace=wrap;html=1;sketch=0;fontSize=13;fontColor=#FFFFFF;strokeColor=#FF6392;fillColor=#FFFFFF;" vertex="1" parent="1">
          <mxGeometry x="170" y="6" width="406" height="60" as="geometry" />
        </mxCell>
        <mxCell id="2ANnBcZG1IqBUi7rHIKL-7" value="" style="ellipse;shape=cloud;whiteSpace=wrap;html=1;fillColor=none;gradientColor=#ffffff;" vertex="1" parent="1">
          <mxGeometry x="294" y="120" width="120" height="80" as="geometry" />
        </mxCell>
        <mxCell id="2ANnBcZG1IqBUi7rHIKL-8" value="&lt;font color=&quot;#000000&quot;&gt;注册中心&lt;/font&gt;" style="ellipse;shape=cloud;whiteSpace=wrap;html=1;fontColor=#FFFFFF;fillColor=#FFFFFF;gradientColor=#ffffff;" vertex="1" parent="1">
          <mxGeometry x="294" y="122" width="120" height="80" as="geometry" />
        </mxCell>
        <mxCell id="2ANnBcZG1IqBUi7rHIKL-9" value="应用实例" style="rounded=1;whiteSpace=wrap;html=1;fontColor=#000000;fillColor=#FFFFFF;gradientColor=#ffffff;" vertex="1" parent="1">
          <mxGeometry x="225" y="256" width="110" height="50" as="geometry" />
        </mxCell>
        <mxCell id="2ANnBcZG1IqBUi7rHIKL-10" value="应用实例" style="rounded=1;whiteSpace=wrap;html=1;fontColor=#000000;fillColor=#FFFFFF;gradientColor=#ffffff;" vertex="1" parent="1">
          <mxGeometry x="235" y="262" width="110" height="50" as="geometry" />
        </mxCell>
        <mxCell id="2ANnBcZG1IqBUi7rHIKL-13" value="监控治理门户" style="rounded=1;whiteSpace=wrap;html=1;fontColor=#000000;fillColor=#FFFFFF;gradientColor=#ffffff;" vertex="1" parent="1">
          <mxGeometry x="160" y="14" width="410" height="60" as="geometry" />
        </mxCell>
        <mxCell id="2ANnBcZG1IqBUi7rHIKL-15" value="" style="sketch=0;outlineConnect=0;fontColor=#232F3E;gradientColor=none;fillColor=#232F3D;strokeColor=none;dashed=0;verticalLabelPosition=bottom;verticalAlign=top;align=center;html=1;fontSize=12;fontStyle=0;aspect=fixed;pointerEvents=1;shape=mxgraph.aws4.gear;" vertex="1" parent="1">
          <mxGeometry x="180" y="24" width="40" height="40" as="geometry" />
        </mxCell>
        <mxCell id="2ANnBcZG1IqBUi7rHIKL-16" value="应用实例" style="rounded=1;whiteSpace=wrap;html=1;fontColor=#000000;fillColor=#FFFFFF;gradientColor=#ffffff;" vertex="1" parent="1">
          <mxGeometry x="385" y="259" width="110" height="50" as="geometry" />
        </mxCell>
        <mxCell id="2ANnBcZG1IqBUi7rHIKL-17" value="应用实例" style="rounded=1;whiteSpace=wrap;html=1;fontColor=#000000;fillColor=#FFFFFF;gradientColor=#ffffff;" vertex="1" parent="1">
          <mxGeometry x="395" y="265" width="110" height="50" as="geometry" />
        </mxCell>
        <mxCell id="2ANnBcZG1IqBUi7rHIKL-19" value="配置中心" style="sketch=0;outlineConnect=0;fontColor=#232F3E;gradientColor=none;fillColor=#232F3D;strokeColor=none;dashed=0;verticalLabelPosition=bottom;verticalAlign=top;align=center;html=1;fontSize=12;fontStyle=0;aspect=fixed;pointerEvents=1;shape=mxgraph.aws4.documents2;" vertex="1" parent="1">
          <mxGeometry x="510" y="122" width="67" height="78" as="geometry" />
        </mxCell>
        <mxCell id="2ANnBcZG1IqBUi7rHIKL-20" value="服务网关" style="sketch=0;points=[[0,0,0],[0.25,0,0],[0.5,0,0],[0.75,0,0],[1,0,0],[0,1,0],[0.25,1,0],[0.5,1,0],[0.75,1,0],[1,1,0],[0,0.25,0],[0,0.5,0],[0,0.75,0],[1,0.25,0],[1,0.5,0],[1,0.75,0]];outlineConnect=0;fontColor=#232F3E;gradientColor=#FFFFFF;gradientDirection=north;fillColor=#FFFFFF;strokeColor=#000000;dashed=0;verticalLabelPosition=bottom;verticalAlign=top;align=center;html=1;fontSize=12;fontStyle=0;aspect=fixed;shape=mxgraph.aws4.resourceIcon;resIcon=mxgraph.aws4.api_gateway;" vertex="1" parent="1">
          <mxGeometry x="142" y="120" width="78" height="78" as="geometry" />
        </mxCell>
        <mxCell id="2ANnBcZG1IqBUi7rHIKL-34" value="&lt;font&gt;&lt;font color=&quot;#ffffff&quot;&gt;需要项目组自己部署和维护注册中心、配置中心、应用网关、监控治理门户等分布式架构基础组件&lt;/font&gt;&lt;br&gt;&lt;/font&gt;" style="rounded=1;whiteSpace=wrap;html=1;sketch=0;fontColor=#5AA9E6;strokeColor=#FF6392;fillColor=#3399FF;arcSize=0;" vertex="1" parent="1">
          <mxGeometry x="269.5" y="360" width="210.5" height="97" as="geometry" />
        </mxCell>
        <mxCell id="2ANnBcZG1IqBUi7rHIKL-35" value="" style="endArrow=none;html=1;rounded=1;sketch=0;fontSize=13;fontColor=#FFFFFF;strokeColor=#6666FF;fillColor=#FFE45E;curved=0;strokeWidth=9;" edge="1" parent="1">
          <mxGeometry width="50" height="50" relative="1" as="geometry">
            <mxPoint x="720" y="320" as="sourcePoint" />
            <mxPoint x="720" y="10" as="targetPoint" />
          </mxGeometry>
        </mxCell>
        <mxCell id="2ANnBcZG1IqBUi7rHIKL-37" value="" style="rounded=1;whiteSpace=wrap;html=1;sketch=0;fontSize=13;fontColor=#FFFFFF;strokeColor=#FF6392;fillColor=#FFFFFF;" vertex="1" parent="1">
          <mxGeometry x="840" y="10" width="580" height="180" as="geometry" />
        </mxCell>
        <mxCell id="2ANnBcZG1IqBUi7rHIKL-38" value="" style="sketch=0;outlineConnect=0;fontColor=#232F3E;gradientColor=none;fillColor=#000099;strokeColor=none;dashed=0;verticalLabelPosition=bottom;verticalAlign=top;align=center;html=1;fontSize=12;fontStyle=0;aspect=fixed;pointerEvents=1;shape=mxgraph.aws4.eventbridge_saas_partner_event_bus_resource;rounded=1;" vertex="1" parent="1">
          <mxGeometry x="860" y="20" width="71" height="71" as="geometry" />
        </mxCell>
        <mxCell id="2ANnBcZG1IqBUi7rHIKL-39" value="" style="ellipse;shape=cloud;whiteSpace=wrap;html=1;fillColor=none;gradientColor=#ffffff;" vertex="1" parent="1">
          <mxGeometry x="1102" y="88" width="120" height="80" as="geometry" />
        </mxCell>
        <mxCell id="2ANnBcZG1IqBUi7rHIKL-40" value="&lt;font color=&quot;#000000&quot;&gt;注册中心&lt;/font&gt;" style="ellipse;shape=cloud;whiteSpace=wrap;html=1;fontColor=#FFFFFF;fillColor=#FFFFFF;gradientColor=#ffffff;" vertex="1" parent="1">
          <mxGeometry x="1102" y="90" width="120" height="80" as="geometry" />
        </mxCell>
        <mxCell id="2ANnBcZG1IqBUi7rHIKL-41" value="配置中心" style="sketch=0;outlineConnect=0;fontColor=#232F3E;gradientColor=none;fillColor=#232F3D;strokeColor=none;dashed=0;verticalLabelPosition=bottom;verticalAlign=top;align=center;html=1;fontSize=12;fontStyle=0;aspect=fixed;pointerEvents=1;shape=mxgraph.aws4.documents2;" vertex="1" parent="1">
          <mxGeometry x="1318" y="79" width="67" height="78" as="geometry" />
        </mxCell>
        <mxCell id="2ANnBcZG1IqBUi7rHIKL-42" value="服务网关" style="sketch=0;points=[[0,0,0],[0.25,0,0],[0.5,0,0],[0.75,0,0],[1,0,0],[0,1,0],[0.25,1,0],[0.5,1,0],[0.75,1,0],[1,1,0],[0,0.25,0],[0,0.5,0],[0,0.75,0],[1,0.25,0],[1,0.5,0],[1,0.75,0]];outlineConnect=0;fontColor=#232F3E;gradientColor=#FFFFFF;gradientDirection=north;fillColor=#FFFFFF;strokeColor=#000000;dashed=0;verticalLabelPosition=bottom;verticalAlign=top;align=center;html=1;fontSize=12;fontStyle=0;aspect=fixed;shape=mxgraph.aws4.resourceIcon;resIcon=mxgraph.aws4.api_gateway;" vertex="1" parent="1">
          <mxGeometry x="950" y="77" width="78" height="78" as="geometry" />
        </mxCell>
        <mxCell id="2ANnBcZG1IqBUi7rHIKL-45" value="&lt;font color=&quot;#000000&quot; style=&quot;font-size: 15px&quot;&gt;技术中台运营服务系统&lt;/font&gt;" style="text;html=1;strokeColor=none;fillColor=none;align=center;verticalAlign=middle;whiteSpace=wrap;rounded=0;sketch=0;fontSize=13;fontColor=#FFFFFF;" vertex="1" parent="1">
          <mxGeometry x="1070" y="29" width="168" height="30" as="geometry" />
        </mxCell>
        <mxCell id="2ANnBcZG1IqBUi7rHIKL-46" value="应用实例" style="rounded=1;whiteSpace=wrap;html=1;fontColor=#000000;fillColor=#FFFFFF;gradientColor=#ffffff;" vertex="1" parent="1">
          <mxGeometry x="1022" y="257.5" width="110" height="50" as="geometry" />
        </mxCell>
        <mxCell id="2ANnBcZG1IqBUi7rHIKL-47" value="应用实例" style="rounded=1;whiteSpace=wrap;html=1;fontColor=#000000;fillColor=#FFFFFF;gradientColor=#ffffff;" vertex="1" parent="1">
          <mxGeometry x="1032" y="263.5" width="110" height="50" as="geometry" />
        </mxCell>
        <mxCell id="2ANnBcZG1IqBUi7rHIKL-48" value="应用实例" style="rounded=1;whiteSpace=wrap;html=1;fontColor=#000000;fillColor=#FFFFFF;gradientColor=#ffffff;" vertex="1" parent="1">
          <mxGeometry x="1182" y="260.5" width="110" height="50" as="geometry" />
        </mxCell>
        <mxCell id="2ANnBcZG1IqBUi7rHIKL-49" value="应用实例" style="rounded=1;whiteSpace=wrap;html=1;fontColor=#000000;fillColor=#FFFFFF;gradientColor=#ffffff;" vertex="1" parent="1">
          <mxGeometry x="1192" y="266.5" width="110" height="50" as="geometry" />
        </mxCell>
        <mxCell id="2ANnBcZG1IqBUi7rHIKL-50" value="&lt;font color=&quot;#ffffff&quot;&gt;技术中台提供统一的服务治理服务能力，项目组只需要关注于应用开发，各组件由技术中台统一部署和维护&lt;/font&gt;" style="rounded=1;whiteSpace=wrap;html=1;sketch=0;fontColor=#5AA9E6;strokeColor=#FF6392;fillColor=#3399FF;" vertex="1" parent="1">
          <mxGeometry x="1018" y="357" width="260" height="90" as="geometry" />
        </mxCell>
      </root>
    </mxGraphModel>
  </diagram>
</mxfile>
